<svg xmlns="http://www.w3.org/2000/svg" xmlns:xlink="http://www.w3.org/1999/xlink" xmlns:s="https://github.com/nturley/netlistsvg" width="1031" height="1283.5">
  <style>svg {
    stroke:#000;
    fill:none;
  }
  text {
    fill:#000;
    stroke:none;
    font-size:10px;
    font-weight: bold;
    font-family: "Courier New", monospace;
  }
  .nodelabel {
    text-anchor: middle;
  }
  .inputPortLabel {
    text-anchor: end;
  }
  .splitjoinBody {
    fill:#000;
  }</style>
  <g s:type="mux" transform="translate(246.66666666666666,23)" s:width="20" s:height="40" id="cell_$abc$1313$auto$blifparse.cc:386:parse_blif$1314">
    <s:alias val="$pmux"/>
    <s:alias val="$mux"/>
    <s:alias val="$_MUX_"/>
    <path d="M0,0 L20,10 L20,30 L0,40 Z" class="cell_$abc$1313$auto$blifparse.cc:386:parse_blif$1314"/>
    <g s:x="0" s:y="10" s:pid="A"/>
    <g s:x="0" s:y="30" s:pid="B"/>
    <g s:x="10" s:y="35" s:pid="S"/>
    <g s:x="20" s:y="20" s:pid="Y"/>
  </g>
  <g s:type="mux" transform="translate(246.66666666666666,83)" s:width="20" s:height="40" id="cell_$abc$1313$auto$blifparse.cc:386:parse_blif$1315">
    <s:alias val="$pmux"/>
    <s:alias val="$mux"/>
    <s:alias val="$_MUX_"/>
    <path d="M0,0 L20,10 L20,30 L0,40 Z" class="cell_$abc$1313$auto$blifparse.cc:386:parse_blif$1315"/>
    <g s:x="0" s:y="10" s:pid="A"/>
    <g s:x="0" s:y="30" s:pid="B"/>
    <g s:x="10" s:y="35" s:pid="S"/>
    <g s:x="20" s:y="20" s:pid="Y"/>
  </g>
  <g s:type="mux" transform="translate(246.66666666666666,143)" s:width="20" s:height="40" id="cell_$abc$1313$auto$blifparse.cc:386:parse_blif$1316">
    <s:alias val="$pmux"/>
    <s:alias val="$mux"/>
    <s:alias val="$_MUX_"/>
    <path d="M0,0 L20,10 L20,30 L0,40 Z" class="cell_$abc$1313$auto$blifparse.cc:386:parse_blif$1316"/>
    <g s:x="0" s:y="10" s:pid="A"/>
    <g s:x="0" s:y="30" s:pid="B"/>
    <g s:x="10" s:y="35" s:pid="S"/>
    <g s:x="20" s:y="20" s:pid="Y"/>
  </g>
  <g s:type="mux" transform="translate(246.66666666666666,203)" s:width="20" s:height="40" id="cell_$abc$1313$auto$blifparse.cc:386:parse_blif$1317">
    <s:alias val="$pmux"/>
    <s:alias val="$mux"/>
    <s:alias val="$_MUX_"/>
    <path d="M0,0 L20,10 L20,30 L0,40 Z" class="cell_$abc$1313$auto$blifparse.cc:386:parse_blif$1317"/>
    <g s:x="0" s:y="10" s:pid="A"/>
    <g s:x="0" s:y="30" s:pid="B"/>
    <g s:x="10" s:y="35" s:pid="S"/>
    <g s:x="20" s:y="20" s:pid="Y"/>
  </g>
  <g s:type="mux" transform="translate(246.66666666666666,263)" s:width="20" s:height="40" id="cell_$abc$1313$auto$blifparse.cc:386:parse_blif$1318">
    <s:alias val="$pmux"/>
    <s:alias val="$mux"/>
    <s:alias val="$_MUX_"/>
    <path d="M0,0 L20,10 L20,30 L0,40 Z" class="cell_$abc$1313$auto$blifparse.cc:386:parse_blif$1318"/>
    <g s:x="0" s:y="10" s:pid="A"/>
    <g s:x="0" s:y="30" s:pid="B"/>
    <g s:x="10" s:y="35" s:pid="S"/>
    <g s:x="20" s:y="20" s:pid="Y"/>
  </g>
  <g s:type="mux" transform="translate(246.66666666666666,323)" s:width="20" s:height="40" id="cell_$abc$1313$auto$blifparse.cc:386:parse_blif$1319">
    <s:alias val="$pmux"/>
    <s:alias val="$mux"/>
    <s:alias val="$_MUX_"/>
    <path d="M0,0 L20,10 L20,30 L0,40 Z" class="cell_$abc$1313$auto$blifparse.cc:386:parse_blif$1319"/>
    <g s:x="0" s:y="10" s:pid="A"/>
    <g s:x="0" s:y="30" s:pid="B"/>
    <g s:x="10" s:y="35" s:pid="S"/>
    <g s:x="20" s:y="20" s:pid="Y"/>
  </g>
  <g s:type="mux" transform="translate(246.66666666666666,515)" s:width="20" s:height="40" id="cell_$abc$1313$auto$blifparse.cc:386:parse_blif$1320">
    <s:alias val="$pmux"/>
    <s:alias val="$mux"/>
    <s:alias val="$_MUX_"/>
    <path d="M0,0 L20,10 L20,30 L0,40 Z" class="cell_$abc$1313$auto$blifparse.cc:386:parse_blif$1320"/>
    <g s:x="0" s:y="10" s:pid="A"/>
    <g s:x="0" s:y="30" s:pid="B"/>
    <g s:x="10" s:y="35" s:pid="S"/>
    <g s:x="20" s:y="20" s:pid="Y"/>
  </g>
  <g s:type="mux" transform="translate(246.66666666666666,575)" s:width="20" s:height="40" id="cell_$abc$1313$auto$blifparse.cc:386:parse_blif$1321">
    <s:alias val="$pmux"/>
    <s:alias val="$mux"/>
    <s:alias val="$_MUX_"/>
    <path d="M0,0 L20,10 L20,30 L0,40 Z" class="cell_$abc$1313$auto$blifparse.cc:386:parse_blif$1321"/>
    <g s:x="0" s:y="10" s:pid="A"/>
    <g s:x="0" s:y="30" s:pid="B"/>
    <g s:x="10" s:y="35" s:pid="S"/>
    <g s:x="20" s:y="20" s:pid="Y"/>
  </g>
  <g s:type="generic" transform="translate(565,954.5)" s:width="30" s:height="40" id="cell_alu0">
    <text x="15" y="-4" class="nodelabel cell_alu0" s:attribute="ref">alu</text>
    <rect width="30" height="60" s:generic="body" class="cell_alu0"/>
    <g transform="translate(0,10)" s:x="0" s:y="10" s:pid="in0" id="port_alu0~A">
      <text x="-3" y="-4" class="inputPortLabel cell_alu0">A</text>
    </g>
    <g transform="translate(0,30)" s:x="0" s:y="10" s:pid="in0" id="port_alu0~B">
      <text x="-3" y="-4" class="inputPortLabel cell_alu0">B</text>
    </g>
    <g transform="translate(0,50)" s:x="0" s:y="10" s:pid="in0" id="port_alu0~op">
      <text x="-3" y="-4" class="inputPortLabel cell_alu0">op</text>
    </g>
    <g transform="translate(30,10)" s:x="30" s:y="10" s:pid="out0" id="port_alu0~carry">
      <text x="5" y="-4" style="fill:#000; stroke:none" class="cell_alu0">carry</text>
    </g>
    <g transform="translate(30,30)" s:x="30" s:y="10" s:pid="out0" id="port_alu0~result">
      <text x="5" y="-4" style="fill:#000; stroke:none" class="cell_alu0">result</text>
    </g>
    <g transform="translate(30,50)" s:x="30" s:y="10" s:pid="out0" id="port_alu0~zero">
      <text x="5" y="-4" style="fill:#000; stroke:none" class="cell_alu0">zero</text>
    </g>
  </g>
  <g s:type="generic" transform="translate(229,1047.5)" s:width="30" s:height="40" id="cell_cu">
    <text x="15" y="-4" class="nodelabel cell_cu" s:attribute="ref">control_unit</text>
    <rect width="30" height="180" s:generic="body" class="cell_cu"/>
    <g transform="translate(0,10)" s:x="0" s:y="10" s:pid="in0" id="port_cu~carry">
      <text x="-3" y="-4" class="inputPortLabel cell_cu">carry</text>
    </g>
    <g transform="translate(0,30)" s:x="0" s:y="10" s:pid="in0" id="port_cu~clk">
      <text x="-3" y="-4" class="inputPortLabel cell_cu">clk</text>
    </g>
    <g transform="translate(0,50)" s:x="0" s:y="10" s:pid="in0" id="port_cu~opcode">
      <text x="-3" y="-4" class="inputPortLabel cell_cu">opcode</text>
    </g>
    <g transform="translate(0,70)" s:x="0" s:y="10" s:pid="in0" id="port_cu~reset">
      <text x="-3" y="-4" class="inputPortLabel cell_cu">reset</text>
    </g>
    <g transform="translate(0,90)" s:x="0" s:y="10" s:pid="in0" id="port_cu~zero">
      <text x="-3" y="-4" class="inputPortLabel cell_cu">zero</text>
    </g>
    <g transform="translate(30,10)" s:x="30" s:y="10" s:pid="out0" id="port_cu~alu_op">
      <text x="5" y="-4" style="fill:#000; stroke:none" class="cell_cu">alu_op</text>
    </g>
    <g transform="translate(30,30)" s:x="30" s:y="10" s:pid="out0" id="port_cu~halt">
      <text x="5" y="-4" style="fill:#000; stroke:none" class="cell_cu">halt</text>
    </g>
    <g transform="translate(30,50)" s:x="30" s:y="10" s:pid="out0" id="port_cu~ir_load">
      <text x="5" y="-4" style="fill:#000; stroke:none" class="cell_cu">ir_load</text>
    </g>
    <g transform="translate(30,70)" s:x="30" s:y="10" s:pid="out0" id="port_cu~output_enable">
      <text x="5" y="-4" style="fill:#000; stroke:none" class="cell_cu">output_enable</text>
    </g>
    <g transform="translate(30,90)" s:x="30" s:y="10" s:pid="out0" id="port_cu~pc_inc">
      <text x="5" y="-4" style="fill:#000; stroke:none" class="cell_cu">pc_inc</text>
    </g>
    <g transform="translate(30,110)" s:x="30" s:y="10" s:pid="out0" id="port_cu~pc_load">
      <text x="5" y="-4" style="fill:#000; stroke:none" class="cell_cu">pc_load</text>
    </g>
    <g transform="translate(30,130)" s:x="30" s:y="10" s:pid="out0" id="port_cu~regA_load">
      <text x="5" y="-4" style="fill:#000; stroke:none" class="cell_cu">regA_load</text>
    </g>
    <g transform="translate(30,150)" s:x="30" s:y="10" s:pid="out0" id="port_cu~regR0_load">
      <text x="5" y="-4" style="fill:#000; stroke:none" class="cell_cu">regR0_load</text>
    </g>
    <g transform="translate(30,170)" s:x="30" s:y="10" s:pid="out0" id="port_cu~regR1_load">
      <text x="5" y="-4" style="fill:#000; stroke:none" class="cell_cu">regR1_load</text>
    </g>
  </g>
  <g s:type="generic" transform="translate(438,682.5)" s:width="30" s:height="40" id="cell_ir0">
    <text x="15" y="-4" class="nodelabel cell_ir0" s:attribute="ref">instruction_register</text>
    <rect width="30" height="80" s:generic="body" class="cell_ir0"/>
    <g transform="translate(0,10)" s:x="0" s:y="10" s:pid="in0" id="port_ir0~clk">
      <text x="-3" y="-4" class="inputPortLabel cell_ir0">clk</text>
    </g>
    <g transform="translate(0,30)" s:x="0" s:y="10" s:pid="in0" id="port_ir0~instr_in">
      <text x="-3" y="-4" class="inputPortLabel cell_ir0">instr_in</text>
    </g>
    <g transform="translate(0,50)" s:x="0" s:y="10" s:pid="in0" id="port_ir0~load">
      <text x="-3" y="-4" class="inputPortLabel cell_ir0">load</text>
    </g>
    <g transform="translate(0,70)" s:x="0" s:y="10" s:pid="in0" id="port_ir0~reset">
      <text x="-3" y="-4" class="inputPortLabel cell_ir0">reset</text>
    </g>
    <g transform="translate(30,10)" s:x="30" s:y="10" s:pid="out0" id="port_ir0~opcode">
      <text x="5" y="-4" style="fill:#000; stroke:none" class="cell_ir0">opcode</text>
    </g>
    <g transform="translate(30,30)" s:x="30" s:y="10" s:pid="out0" id="port_ir0~operand">
      <text x="5" y="-4" style="fill:#000; stroke:none" class="cell_ir0">operand</text>
    </g>
  </g>
  <g s:type="generic" transform="translate(746,810.5)" s:width="30" s:height="40" id="cell_pc0">
    <text x="15" y="-4" class="nodelabel cell_pc0" s:attribute="ref">program_counter</text>
    <rect width="30" height="100" s:generic="body" class="cell_pc0"/>
    <g transform="translate(0,10)" s:x="0" s:y="10" s:pid="in0" id="port_pc0~clk">
      <text x="-3" y="-4" class="inputPortLabel cell_pc0">clk</text>
    </g>
    <g transform="translate(0,30)" s:x="0" s:y="10" s:pid="in0" id="port_pc0~data_in">
      <text x="-3" y="-4" class="inputPortLabel cell_pc0">data_in</text>
    </g>
    <g transform="translate(0,50)" s:x="0" s:y="10" s:pid="in0" id="port_pc0~inc">
      <text x="-3" y="-4" class="inputPortLabel cell_pc0">inc</text>
    </g>
    <g transform="translate(0,70)" s:x="0" s:y="10" s:pid="in0" id="port_pc0~load">
      <text x="-3" y="-4" class="inputPortLabel cell_pc0">load</text>
    </g>
    <g transform="translate(0,90)" s:x="0" s:y="10" s:pid="in0" id="port_pc0~reset">
      <text x="-3" y="-4" class="inputPortLabel cell_pc0">reset</text>
    </g>
    <g transform="translate(30,10)" s:x="30" s:y="10" s:pid="out0" id="port_pc0~addr_out">
      <text x="5" y="-4" style="fill:#000; stroke:none" class="cell_pc0">addr_out</text>
    </g>
  </g>
  <g s:type="generic" transform="translate(746,1105)" s:width="30" s:height="40" id="cell_regA">
    <text x="15" y="-4" class="nodelabel cell_regA" s:attribute="ref">reg8</text>
    <rect width="30" height="80" s:generic="body" class="cell_regA"/>
    <g transform="translate(0,10)" s:x="0" s:y="10" s:pid="in0" id="port_regA~clk">
      <text x="-3" y="-4" class="inputPortLabel cell_regA">clk</text>
    </g>
    <g transform="translate(0,30)" s:x="0" s:y="10" s:pid="in0" id="port_regA~data_in">
      <text x="-3" y="-4" class="inputPortLabel cell_regA">data_in</text>
    </g>
    <g transform="translate(0,50)" s:x="0" s:y="10" s:pid="in0" id="port_regA~load">
      <text x="-3" y="-4" class="inputPortLabel cell_regA">load</text>
    </g>
    <g transform="translate(0,70)" s:x="0" s:y="10" s:pid="in0" id="port_regA~reset">
      <text x="-3" y="-4" class="inputPortLabel cell_regA">reset</text>
    </g>
    <g transform="translate(30,10)" s:x="30" s:y="10" s:pid="out0" id="port_regA~data_out">
      <text x="5" y="-4" style="fill:#000; stroke:none" class="cell_regA">data_out</text>
    </g>
  </g>
  <g s:type="generic" transform="translate(929,682.5)" s:width="30" s:height="40" id="cell_regR0">
    <text x="15" y="-4" class="nodelabel cell_regR0" s:attribute="ref">reg8</text>
    <rect width="30" height="80" s:generic="body" class="cell_regR0"/>
    <g transform="translate(0,10)" s:x="0" s:y="10" s:pid="in0" id="port_regR0~clk">
      <text x="-3" y="-4" class="inputPortLabel cell_regR0">clk</text>
    </g>
    <g transform="translate(0,30)" s:x="0" s:y="10" s:pid="in0" id="port_regR0~data_in">
      <text x="-3" y="-4" class="inputPortLabel cell_regR0">data_in</text>
    </g>
    <g transform="translate(0,50)" s:x="0" s:y="10" s:pid="in0" id="port_regR0~load">
      <text x="-3" y="-4" class="inputPortLabel cell_regR0">load</text>
    </g>
    <g transform="translate(0,70)" s:x="0" s:y="10" s:pid="in0" id="port_regR0~reset">
      <text x="-3" y="-4" class="inputPortLabel cell_regR0">reset</text>
    </g>
    <g transform="translate(30,10)" s:x="30" s:y="10" s:pid="out0" id="port_regR0~data_out">
      <text x="5" y="-4" style="fill:#000; stroke:none" class="cell_regR0">data_out</text>
    </g>
  </g>
  <g s:type="generic" transform="translate(929,977.5)" s:width="30" s:height="40" id="cell_regR1">
    <text x="15" y="-4" class="nodelabel cell_regR1" s:attribute="ref">reg8</text>
    <rect width="30" height="80" s:generic="body" class="cell_regR1"/>
    <g transform="translate(0,10)" s:x="0" s:y="10" s:pid="in0" id="port_regR1~clk">
      <text x="-3" y="-4" class="inputPortLabel cell_regR1">clk</text>
    </g>
    <g transform="translate(0,30)" s:x="0" s:y="10" s:pid="in0" id="port_regR1~data_in">
      <text x="-3" y="-4" class="inputPortLabel cell_regR1">data_in</text>
    </g>
    <g transform="translate(0,50)" s:x="0" s:y="10" s:pid="in0" id="port_regR1~load">
      <text x="-3" y="-4" class="inputPortLabel cell_regR1">load</text>
    </g>
    <g transform="translate(0,70)" s:x="0" s:y="10" s:pid="in0" id="port_regR1~reset">
      <text x="-3" y="-4" class="inputPortLabel cell_regR1">reset</text>
    </g>
    <g transform="translate(30,10)" s:x="30" s:y="10" s:pid="out0" id="port_regR1~data_out">
      <text x="5" y="-4" style="fill:#000; stroke:none" class="cell_regR1">data_out</text>
    </g>
  </g>
  <g s:type="generic" transform="translate(929,810.5)" s:width="30" s:height="40" id="cell_rom0">
    <text x="15" y="-4" class="nodelabel cell_rom0" s:attribute="ref">rom</text>
    <rect width="30" height="20" s:generic="body" class="cell_rom0"/>
    <g transform="translate(0,10)" s:x="0" s:y="10" s:pid="in0" id="port_rom0~addr">
      <text x="-3" y="-4" class="inputPortLabel cell_rom0">addr</text>
    </g>
    <g transform="translate(30,10)" s:x="30" s:y="10" s:pid="out0" id="port_rom0~data">
      <text x="5" y="-4" style="fill:#000; stroke:none" class="cell_rom0">data</text>
    </g>
  </g>
  <g s:type="inputExt" transform="translate(32,1068)" s:width="30" s:height="20" id="cell_clk">
    <text x="15" y="-4" class="nodelabel cell_clk" s:attribute="ref">clk</text>
    <s:alias val="$_inputExt_"/>
    <path d="M0,0 L0,20 L15,20 L30,10 L15,0 Z" class="cell_clk"/>
    <g s:x="28" s:y="10" s:pid="Y"/>
  </g>
  <g s:type="inputExt" transform="translate(32,1240.5)" s:width="30" s:height="20" id="cell_reset">
    <text x="15" y="-4" class="nodelabel cell_reset" s:attribute="ref">reset</text>
    <s:alias val="$_inputExt_"/>
    <path d="M0,0 L0,20 L15,20 L30,10 L15,0 Z" class="cell_reset"/>
    <g s:x="28" s:y="10" s:pid="Y"/>
  </g>
  <g s:type="outputExt" transform="translate(929,1105.5)" s:width="30" s:height="20" id="cell_out_data">
    <text x="15" y="-4" class="nodelabel cell_out_data" s:attribute="ref">out_data</text>
    <s:alias val="$_outputExt_"/>
    <path d="M30,0 L30,20 L15,20 L0,10 L15,0 Z" class="cell_out_data"/>
    <g s:x="0" s:y="10" s:pid="A"/>
  </g>
  <g s:type="join" transform="translate(441,192.5)" s:width="4" s:height="40" id="cell_$join$,15,18,21,24,27,30,33,36,">
    <rect width="5" height="160" class="splitjoinBody" s:generic="body"/>
    <s:alias val="$_join_"/>
    <g s:x="5" s:y="20" s:pid="out"/>
    <g transform="translate(0,10)" s:x="0" s:y="10" s:pid="in0">
      <text x="-3" y="-4" class="inputPortLabel">0</text>
    </g>
    <g transform="translate(0,30)" s:x="0" s:y="10" s:pid="in0">
      <text x="-3" y="-4" class="inputPortLabel">1</text>
    </g>
    <g transform="translate(0,50)" s:x="0" s:y="10" s:pid="in0">
      <text x="-3" y="-4" class="inputPortLabel">2</text>
    </g>
    <g transform="translate(0,70)" s:x="0" s:y="10" s:pid="in0">
      <text x="-3" y="-4" class="inputPortLabel">3</text>
    </g>
    <g transform="translate(0,90)" s:x="0" s:y="10" s:pid="in0">
      <text x="-3" y="-4" class="inputPortLabel">4</text>
    </g>
    <g transform="translate(0,110)" s:x="0" s:y="10" s:pid="in0">
      <text x="-3" y="-4" class="inputPortLabel">5</text>
    </g>
    <g transform="translate(0,130)" s:x="0" s:y="10" s:pid="in0">
      <text x="-3" y="-4" class="inputPortLabel">6</text>
    </g>
    <g transform="translate(0,150)" s:x="0" s:y="10" s:pid="in0">
      <text x="-3" y="-4" class="inputPortLabel">7</text>
    </g>
  </g>
  <g s:type="split" transform="translate(50,222.5)" s:width="5" s:height="40" id="cell_$split$,12,16,19,22,25,28,31,34,">
    <rect width="5" height="160" class="splitjoinBody" s:generic="body"/>
    <s:alias val="$_split_"/>
    <g s:x="0" s:y="20" s:pid="in"/>
    <g transform="translate(4,10)" s:x="4" s:y="10" s:pid="out0">
      <text x="5" y="-4">0</text>
    </g>
    <g transform="translate(4,30)" s:x="4" s:y="10" s:pid="out0">
      <text x="5" y="-4">1</text>
    </g>
    <g transform="translate(4,50)" s:x="4" s:y="10" s:pid="out0">
      <text x="5" y="-4">2</text>
    </g>
    <g transform="translate(4,70)" s:x="4" s:y="10" s:pid="out0">
      <text x="5" y="-4">3</text>
    </g>
    <g transform="translate(4,90)" s:x="4" s:y="10" s:pid="out0">
      <text x="5" y="-4">4</text>
    </g>
    <g transform="translate(4,110)" s:x="4" s:y="10" s:pid="out0">
      <text x="5" y="-4">5</text>
    </g>
    <g transform="translate(4,130)" s:x="4" s:y="10" s:pid="out0">
      <text x="5" y="-4">6</text>
    </g>
    <g transform="translate(4,150)" s:x="4" s:y="10" s:pid="out0">
      <text x="5" y="-4">7</text>
    </g>
  </g>
  <g s:type="split" transform="translate(50,414.5)" s:width="5" s:height="40" id="cell_$split$,13,17,20,23,26,29,32,35,">
    <rect width="5" height="160" class="splitjoinBody" s:generic="body"/>
    <s:alias val="$_split_"/>
    <g s:x="0" s:y="20" s:pid="in"/>
    <g transform="translate(4,10)" s:x="4" s:y="10" s:pid="out0">
      <text x="5" y="-4">0</text>
    </g>
    <g transform="translate(4,30)" s:x="4" s:y="10" s:pid="out0">
      <text x="5" y="-4">1</text>
    </g>
    <g transform="translate(4,50)" s:x="4" s:y="10" s:pid="out0">
      <text x="5" y="-4">2</text>
    </g>
    <g transform="translate(4,70)" s:x="4" s:y="10" s:pid="out0">
      <text x="5" y="-4">3</text>
    </g>
    <g transform="translate(4,90)" s:x="4" s:y="10" s:pid="out0">
      <text x="5" y="-4">4</text>
    </g>
    <g transform="translate(4,110)" s:x="4" s:y="10" s:pid="out0">
      <text x="5" y="-4">5</text>
    </g>
    <g transform="translate(4,130)" s:x="4" s:y="10" s:pid="out0">
      <text x="5" y="-4">6</text>
    </g>
    <g transform="translate(4,150)" s:x="4" s:y="10" s:pid="out0">
      <text x="5" y="-4">7</text>
    </g>
  </g>
  <g s:type="split" transform="translate(50,615)" s:width="5" s:height="40" id="cell_$split$,14,51,52,53,">
    <rect width="5" height="20" class="splitjoinBody" s:generic="body"/>
    <s:alias val="$_split_"/>
    <g s:x="0" s:y="20" s:pid="in"/>
    <g transform="translate(4,10)" s:x="4" s:y="10" s:pid="out0">
      <text x="5" y="-4">0</text>
    </g>
  </g>
  <g s:type="split" transform="translate(590,670)" s:width="5" s:height="40" id="cell_$split$,68,69,70,71,72,73,74,75,">
    <rect width="5" height="20" class="splitjoinBody" s:generic="body"/>
    <s:alias val="$_split_"/>
    <g s:x="0" s:y="20" s:pid="in"/>
    <g transform="translate(4,10)" s:x="4" s:y="10" s:pid="out0">
      <text x="5" y="-4">0:3</text>
    </g>
  </g>
  <line x1="54.5" x2="54.5" y1="232.5" y2="33" class="net_12"/>
  <line x1="54.5" x2="246.66666666666666" y1="33" y2="33" class="net_12"/>
  <line x1="54.5" x2="54.5" y1="424.5" y2="402.5" class="net_13"/>
  <line x1="54.5" x2="82" y1="402.5" y2="402.5" class="net_13"/>
  <line x1="82" x2="82" y1="402.5" y2="53" class="net_13"/>
  <line x1="82" x2="246.66666666666666" y1="53" y2="53" class="net_13"/>
  <line x1="55" x2="182" y1="625.5" y2="625.5" class="net_14"/>
  <line x1="182" x2="182" y1="625.5" y2="73" class="net_14"/>
  <line x1="182" x2="256.66666666666663" y1="73" y2="73" class="net_14"/>
  <circle cx="182" cy="625.5" r="2" style="fill:#000" class="net_14"/>
  <line x1="256.66666666666663" x2="256.66666666666663" y1="73" y2="58" class="net_14"/>
  <line x1="55" x2="182" y1="625.5" y2="625.5" class="net_14"/>
  <line x1="182" x2="182" y1="625.5" y2="133" class="net_14"/>
  <line x1="182" x2="256.66666666666663" y1="133" y2="133" class="net_14"/>
  <circle cx="182" cy="133" r="2" style="fill:#000" class="net_14"/>
  <line x1="256.66666666666663" x2="256.66666666666663" y1="133" y2="118" class="net_14"/>
  <line x1="55" x2="182" y1="625.5" y2="625.5" class="net_14"/>
  <line x1="182" x2="182" y1="625.5" y2="193" class="net_14"/>
  <line x1="182" x2="256.66666666666663" y1="193" y2="193" class="net_14"/>
  <circle cx="182" cy="193" r="2" style="fill:#000" class="net_14"/>
  <line x1="256.66666666666663" x2="256.66666666666663" y1="193" y2="178" class="net_14"/>
  <line x1="55" x2="182" y1="625.5" y2="625.5" class="net_14"/>
  <line x1="182" x2="182" y1="625.5" y2="253" class="net_14"/>
  <line x1="182" x2="256.66666666666663" y1="253" y2="253" class="net_14"/>
  <circle cx="182" cy="253" r="2" style="fill:#000" class="net_14"/>
  <line x1="256.66666666666663" x2="256.66666666666663" y1="253" y2="238" class="net_14"/>
  <line x1="55" x2="182" y1="625.5" y2="625.5" class="net_14"/>
  <line x1="182" x2="182" y1="625.5" y2="313" class="net_14"/>
  <line x1="182" x2="256.66666666666663" y1="313" y2="313" class="net_14"/>
  <circle cx="182" cy="313" r="2" style="fill:#000" class="net_14"/>
  <line x1="256.66666666666663" x2="256.66666666666663" y1="313" y2="298" class="net_14"/>
  <line x1="55" x2="182" y1="625.5" y2="625.5" class="net_14"/>
  <line x1="182" x2="182" y1="625.5" y2="505" class="net_14"/>
  <line x1="182" x2="256.66666666666663" y1="505" y2="505" class="net_14"/>
  <circle cx="182" cy="505" r="2" style="fill:#000" class="net_14"/>
  <line x1="256.66666666666663" x2="256.66666666666663" y1="505" y2="358" class="net_14"/>
  <line x1="55" x2="182" y1="625.5" y2="625.5" class="net_14"/>
  <line x1="182" x2="182" y1="625.5" y2="565" class="net_14"/>
  <line x1="182" x2="256.66666666666663" y1="565" y2="565" class="net_14"/>
  <circle cx="182" cy="565" r="2" style="fill:#000" class="net_14"/>
  <line x1="256.66666666666663" x2="256.66666666666663" y1="565" y2="550" class="net_14"/>
  <line x1="55" x2="256.66666666666663" y1="625.5" y2="625.5" class="net_14"/>
  <line x1="256.66666666666663" x2="256.66666666666663" y1="625.5" y2="610" class="net_14"/>
  <line x1="55" x2="72" y1="253" y2="253" class="net_16"/>
  <line x1="72" x2="72" y1="253" y2="93" class="net_16"/>
  <line x1="72" x2="246.66666666666666" y1="93" y2="93" class="net_16"/>
  <line x1="55" x2="92" y1="445" y2="445" class="net_17"/>
  <line x1="92" x2="92" y1="445" y2="113" class="net_17"/>
  <line x1="92" x2="246.66666666666666" y1="113" y2="113" class="net_17"/>
  <line x1="55" x2="102" y1="273" y2="273" class="net_19"/>
  <line x1="102" x2="102" y1="273" y2="153" class="net_19"/>
  <line x1="102" x2="246.66666666666666" y1="153" y2="153" class="net_19"/>
  <line x1="55" x2="112" y1="465" y2="465" class="net_20"/>
  <line x1="112" x2="112" y1="465" y2="173" class="net_20"/>
  <line x1="112" x2="246.66666666666666" y1="173" y2="173" class="net_20"/>
  <line x1="55" x2="122" y1="293" y2="293" class="net_22"/>
  <line x1="122" x2="122" y1="293" y2="213" class="net_22"/>
  <line x1="122" x2="246.66666666666666" y1="213" y2="213" class="net_22"/>
  <line x1="55" x2="132" y1="485" y2="485" class="net_23"/>
  <line x1="132" x2="132" y1="485" y2="233" class="net_23"/>
  <line x1="132" x2="246.66666666666666" y1="233" y2="233" class="net_23"/>
  <line x1="55" x2="142" y1="313" y2="313" class="net_25"/>
  <line x1="142" x2="142" y1="313" y2="273" class="net_25"/>
  <line x1="142" x2="246.66666666666666" y1="273" y2="273" class="net_25"/>
  <line x1="55" x2="152" y1="505" y2="505" class="net_26"/>
  <line x1="152" x2="152" y1="505" y2="293" class="net_26"/>
  <line x1="152" x2="246.66666666666666" y1="293" y2="293" class="net_26"/>
  <line x1="55" x2="246.66666666666666" y1="333" y2="333" class="net_28"/>
  <line x1="55" x2="162" y1="525" y2="525" class="net_29"/>
  <line x1="162" x2="162" y1="525" y2="353" class="net_29"/>
  <line x1="162" x2="246.66666666666666" y1="353" y2="353" class="net_29"/>
  <line x1="55" x2="172" y1="353" y2="353" class="net_31"/>
  <line x1="172" x2="172" y1="353" y2="525" class="net_31"/>
  <line x1="172" x2="246.66666666666666" y1="525" y2="525" class="net_31"/>
  <line x1="55" x2="246.66666666666666" y1="545" y2="545" class="net_32"/>
  <line x1="54.5" x2="54.5" y1="373.5" y2="392.5" class="net_34"/>
  <line x1="54.5" x2="72" y1="392.5" y2="392.5" class="net_34"/>
  <line x1="72" x2="72" y1="392.5" y2="585" class="net_34"/>
  <line x1="72" x2="246.66666666666666" y1="585" y2="585" class="net_34"/>
  <line x1="54.5" x2="54.5" y1="565.5" y2="605" class="net_35"/>
  <line x1="54.5" x2="246.66666666666666" y1="605" y2="605" class="net_35"/>
  <line x1="777" x2="836" y1="1115.5" y2="1115.5" class="net_4,5,6,7,8,9,10,11"/>
  <line x1="836" x2="836" y1="1115.5" y2="790.5" class="net_4,5,6,7,8,9,10,11"/>
  <line x1="836" x2="542" y1="790.5" y2="790.5" class="net_4,5,6,7,8,9,10,11"/>
  <line x1="542" x2="542" y1="790.5" y2="965" class="net_4,5,6,7,8,9,10,11"/>
  <circle cx="836" cy="1115.5" r="2" style="fill:#000" class="net_4,5,6,7,8,9,10,11"/>
  <line x1="542" x2="565" y1="965" y2="965" class="net_4,5,6,7,8,9,10,11"/>
  <line x1="777" x2="929" y1="1115.5" y2="1115.5" class="net_4,5,6,7,8,9,10,11"/>
  <line x1="447" x2="532" y1="213" y2="213" class="net_15,18,21,24,27,30,33,36"/>
  <line x1="532" x2="532" y1="213" y2="985" class="net_15,18,21,24,27,30,33,36"/>
  <line x1="532" x2="565" y1="985" y2="985" class="net_15,18,21,24,27,30,33,36"/>
  <line x1="260" x2="532" y1="1058" y2="1058" class="net_38,39"/>
  <line x1="532" x2="532" y1="1058" y2="1005" class="net_38,39"/>
  <line x1="532" x2="565" y1="1005" y2="1005" class="net_38,39"/>
  <line x1="596" x2="643" y1="965" y2="965" class="net_37"/>
  <line x1="643" x2="643" y1="965" y2="934.5" class="net_37"/>
  <line x1="643" x2="82" y1="934.5" y2="934.5" class="net_37"/>
  <line x1="82" x2="82" y1="934.5" y2="1058" class="net_37"/>
  <line x1="82" x2="229" y1="1058" y2="1058" class="net_37"/>
  <line x1="60" x2="229" y1="1078" y2="1078" class="net_2"/>
  <line x1="60" x2="72" y1="1078" y2="1078" class="net_2"/>
  <line x1="72" x2="72" y1="1078" y2="659" class="net_2"/>
  <line x1="72" x2="349" y1="659" y2="659" class="net_2"/>
  <line x1="349" x2="349" y1="659" y2="693" class="net_2"/>
  <circle cx="72" cy="1078" r="2" style="fill:#000" class="net_2"/>
  <circle cx="349" cy="659" r="2" style="fill:#000" class="net_2"/>
  <line x1="349" x2="438" y1="693" y2="693" class="net_2"/>
  <line x1="60" x2="72" y1="1078" y2="1078" class="net_2"/>
  <line x1="72" x2="72" y1="1078" y2="659" class="net_2"/>
  <line x1="72" x2="693" y1="659" y2="659" class="net_2"/>
  <line x1="693" x2="693" y1="659" y2="821" class="net_2"/>
  <circle cx="693" cy="821" r="2" style="fill:#000" class="net_2"/>
  <line x1="693" x2="746" y1="821" y2="821" class="net_2"/>
  <line x1="60" x2="72" y1="1078" y2="1078" class="net_2"/>
  <line x1="72" x2="72" y1="1078" y2="659" class="net_2"/>
  <line x1="72" x2="693" y1="659" y2="659" class="net_2"/>
  <line x1="693" x2="693" y1="659" y2="1115.5" class="net_2"/>
  <circle cx="693" cy="659" r="2" style="fill:#000" class="net_2"/>
  <line x1="693" x2="746" y1="1115.5" y2="1115.5" class="net_2"/>
  <line x1="60" x2="72" y1="1078" y2="1078" class="net_2"/>
  <line x1="72" x2="72" y1="1078" y2="659" class="net_2"/>
  <line x1="72" x2="876" y1="659" y2="659" class="net_2"/>
  <line x1="876" x2="876" y1="659" y2="693" class="net_2"/>
  <circle cx="876" cy="693" r="2" style="fill:#000" class="net_2"/>
  <line x1="876" x2="929" y1="693" y2="693" class="net_2"/>
  <line x1="60" x2="72" y1="1078" y2="1078" class="net_2"/>
  <line x1="72" x2="72" y1="1078" y2="659" class="net_2"/>
  <line x1="72" x2="876" y1="659" y2="659" class="net_2"/>
  <line x1="876" x2="876" y1="659" y2="988" class="net_2"/>
  <line x1="876" x2="929" y1="988" y2="988" class="net_2"/>
  <line x1="469" x2="522" y1="693" y2="693" class="net_14,51,52,53"/>
  <line x1="522" x2="522" y1="693" y2="1240.5" class="net_14,51,52,53"/>
  <line x1="522" x2="72" y1="1240.5" y2="1240.5" class="net_14,51,52,53"/>
  <line x1="72" x2="72" y1="1240.5" y2="1098" class="net_14,51,52,53"/>
  <line x1="72" x2="229" y1="1098" y2="1098" class="net_14,51,52,53"/>
  <line x1="469" x2="522" y1="693" y2="693" class="net_14,51,52,53"/>
  <line x1="522" x2="522" y1="693" y2="648" class="net_14,51,52,53"/>
  <line x1="522" x2="50.5" y1="648" y2="648" class="net_14,51,52,53"/>
  <circle cx="522" cy="693" r="2" style="fill:#000" class="net_14,51,52,53"/>
  <line x1="50.5" x2="50.5" y1="648" y2="636" class="net_14,51,52,53"/>
  <line x1="60" x2="102" y1="1250.5" y2="1250.5" class="net_3"/>
  <line x1="102" x2="102" y1="1250.5" y2="1118" class="net_3"/>
  <circle cx="102" cy="1250.5" r="2" style="fill:#000" class="net_3"/>
  <line x1="102" x2="229" y1="1118" y2="1118" class="net_3"/>
  <line x1="60" x2="369" y1="1250.5" y2="1250.5" class="net_3"/>
  <line x1="369" x2="369" y1="1250.5" y2="753" class="net_3"/>
  <circle cx="369" cy="1250.5" r="2" style="fill:#000" class="net_3"/>
  <line x1="369" x2="438" y1="753" y2="753" class="net_3"/>
  <line x1="60" x2="683" y1="1250.5" y2="1250.5" class="net_3"/>
  <line x1="683" x2="683" y1="1250.5" y2="901" class="net_3"/>
  <circle cx="683" cy="1250.5" r="2" style="fill:#000" class="net_3"/>
  <line x1="683" x2="746" y1="901" y2="901" class="net_3"/>
  <line x1="60" x2="683" y1="1250.5" y2="1250.5" class="net_3"/>
  <line x1="683" x2="683" y1="1250.5" y2="1175.5" class="net_3"/>
  <circle cx="683" cy="1175.5" r="2" style="fill:#000" class="net_3"/>
  <line x1="683" x2="746" y1="1175.5" y2="1175.5" class="net_3"/>
  <line x1="60" x2="866" y1="1250.5" y2="1250.5" class="net_3"/>
  <line x1="866" x2="866" y1="1250.5" y2="753" class="net_3"/>
  <line x1="866" x2="929" y1="753" y2="753" class="net_3"/>
  <line x1="60" x2="866" y1="1250.5" y2="1250.5" class="net_3"/>
  <line x1="866" x2="866" y1="1250.5" y2="1048" class="net_3"/>
  <circle cx="866" cy="1048" r="2" style="fill:#000" class="net_3"/>
  <line x1="866" x2="929" y1="1048" y2="1048" class="net_3"/>
  <line x1="596" x2="643" y1="1005" y2="1005" class="net_48"/>
  <line x1="643" x2="643" y1="1005" y2="1027.5" class="net_48"/>
  <line x1="643" x2="92" y1="1027.5" y2="1027.5" class="net_48"/>
  <line x1="92" x2="92" y1="1027.5" y2="1138" class="net_48"/>
  <line x1="92" x2="229" y1="1138" y2="1138" class="net_48"/>
  <line x1="960" x2="1019" y1="821" y2="821" class="net_60,61,62,63,64,65,66,67"/>
  <line x1="1019" x2="1019" y1="821" y2="923.5" class="net_60,61,62,63,64,65,66,67"/>
  <line x1="1019" x2="359" y1="923.5" y2="923.5" class="net_60,61,62,63,64,65,66,67"/>
  <line x1="359" x2="359" y1="923.5" y2="713" class="net_60,61,62,63,64,65,66,67"/>
  <line x1="359" x2="438" y1="713" y2="713" class="net_60,61,62,63,64,65,66,67"/>
  <line x1="260" x2="349" y1="1098" y2="1098" class="net_50"/>
  <line x1="349" x2="349" y1="1098" y2="733" class="net_50"/>
  <line x1="349" x2="438" y1="733" y2="733" class="net_50"/>
  <line x1="595" x2="643" y1="680.5" y2="680.5" class="net_68,69,70,71"/>
  <line x1="643" x2="643" y1="680.5" y2="841" class="net_68,69,70,71"/>
  <line x1="643" x2="746" y1="841" y2="841" class="net_68,69,70,71"/>
  <line x1="260" x2="379" y1="1138" y2="1138" class="net_55"/>
  <line x1="379" x2="379" y1="1138" y2="1133.5" class="net_55"/>
  <line x1="379" x2="653" y1="1133.5" y2="1133.5" class="net_55"/>
  <line x1="653" x2="653" y1="1133.5" y2="861" class="net_55"/>
  <line x1="653" x2="746" y1="861" y2="861" class="net_55"/>
  <line x1="260" x2="349" y1="1158" y2="1158" class="net_56"/>
  <line x1="349" x2="349" y1="1158" y2="1144.5" class="net_56"/>
  <line x1="349" x2="663" y1="1144.5" y2="1144.5" class="net_56"/>
  <line x1="663" x2="663" y1="1144.5" y2="881" class="net_56"/>
  <line x1="663" x2="746" y1="881" y2="881" class="net_56"/>
  <line x1="596" x2="673" y1="985" y2="985" class="net_40,41,42,43,44,45,46,47"/>
  <line x1="673" x2="673" y1="985" y2="1135.5" class="net_40,41,42,43,44,45,46,47"/>
  <line x1="673" x2="746" y1="1135.5" y2="1135.5" class="net_40,41,42,43,44,45,46,47"/>
  <line x1="260" x2="379" y1="1178" y2="1178" class="net_57"/>
  <line x1="379" x2="379" y1="1178" y2="1155.5" class="net_57"/>
  <line x1="379" x2="746" y1="1155.5" y2="1155.5" class="net_57"/>
  <line x1="469" x2="929" y1="713" y2="713" class="net_68,69,70,71,72,73,74,75"/>
  <line x1="469" x2="856" y1="713" y2="713" class="net_68,69,70,71,72,73,74,75"/>
  <line x1="856" x2="856" y1="713" y2="1008" class="net_68,69,70,71,72,73,74,75"/>
  <circle cx="856" cy="713" r="2" style="fill:#000" class="net_68,69,70,71,72,73,74,75"/>
  <line x1="856" x2="929" y1="1008" y2="1008" class="net_68,69,70,71,72,73,74,75"/>
  <line x1="469" x2="542" y1="713" y2="713" class="net_68,69,70,71,72,73,74,75"/>
  <line x1="542" x2="542" y1="713" y2="703" class="net_68,69,70,71,72,73,74,75"/>
  <line x1="542" x2="590.5" y1="703" y2="703" class="net_68,69,70,71,72,73,74,75"/>
  <circle cx="542" cy="713" r="2" style="fill:#000" class="net_68,69,70,71,72,73,74,75"/>
  <line x1="590.5" x2="590.5" y1="703" y2="691" class="net_68,69,70,71,72,73,74,75"/>
  <line x1="260" x2="846" y1="1198" y2="1198" class="net_58"/>
  <line x1="846" x2="846" y1="1198" y2="733" class="net_58"/>
  <line x1="846" x2="929" y1="733" y2="733" class="net_58"/>
  <line x1="260" x2="856" y1="1218" y2="1218" class="net_59"/>
  <line x1="856" x2="856" y1="1218" y2="1028" class="net_59"/>
  <line x1="856" x2="929" y1="1028" y2="1028" class="net_59"/>
  <line x1="777" x2="929" y1="821" y2="821" class="net_76,77,78,79"/>
  <line x1="266.66666666666663" x2="441.5" y1="43" y2="43" class="net_15"/>
  <line x1="441.5" x2="441.5" y1="43" y2="202.5" class="net_15"/>
  <line x1="266.66666666666663" x2="369" y1="103" y2="103" class="net_18"/>
  <line x1="369" x2="369" y1="103" y2="223" class="net_18"/>
  <line x1="369" x2="441" y1="223" y2="223" class="net_18"/>
  <line x1="266.66666666666663" x2="359" y1="163" y2="163" class="net_21"/>
  <line x1="359" x2="359" y1="163" y2="243" class="net_21"/>
  <line x1="359" x2="441" y1="243" y2="243" class="net_21"/>
  <line x1="266.66666666666663" x2="349" y1="223" y2="223" class="net_24"/>
  <line x1="349" x2="349" y1="223" y2="263" class="net_24"/>
  <line x1="349" x2="441" y1="263" y2="263" class="net_24"/>
  <line x1="266.66666666666663" x2="441" y1="283" y2="283" class="net_27"/>
  <line x1="266.66666666666663" x2="349" y1="343" y2="343" class="net_30"/>
  <line x1="349" x2="349" y1="343" y2="303" class="net_30"/>
  <line x1="349" x2="441" y1="303" y2="303" class="net_30"/>
  <line x1="266.66666666666663" x2="359" y1="535" y2="535" class="net_33"/>
  <line x1="359" x2="359" y1="535" y2="323" class="net_33"/>
  <line x1="359" x2="441" y1="323" y2="323" class="net_33"/>
  <line x1="266.66666666666663" x2="441.5" y1="595" y2="595" class="net_36"/>
  <line x1="441.5" x2="441.5" y1="595" y2="343.5" class="net_36"/>
  <line x1="960" x2="1019" y1="693" y2="693" class="net_12,16,19,22,25,28,31,34"/>
  <line x1="1019" x2="1019" y1="693" y2="12" class="net_12,16,19,22,25,28,31,34"/>
  <line x1="1019" x2="12" y1="12" y2="12" class="net_12,16,19,22,25,28,31,34"/>
  <line x1="12" x2="12" y1="12" y2="243" class="net_12,16,19,22,25,28,31,34"/>
  <line x1="12" x2="50" y1="243" y2="243" class="net_12,16,19,22,25,28,31,34"/>
  <line x1="960" x2="1019" y1="988" y2="988" class="net_13,17,20,23,26,29,32,35"/>
  <line x1="1019" x2="1019" y1="988" y2="1270.5" class="net_13,17,20,23,26,29,32,35"/>
  <line x1="1019" x2="12" y1="1270.5" y2="1270.5" class="net_13,17,20,23,26,29,32,35"/>
  <line x1="12" x2="12" y1="1270.5" y2="435" class="net_13,17,20,23,26,29,32,35"/>
  <line x1="12" x2="50" y1="435" y2="435" class="net_13,17,20,23,26,29,32,35"/>
</svg>
